<?xml version="1.0" standalone="no"?>
<!DOCTYPE svg PUBLIC "-//W3C//DTD SVG 20010904//EN"
 "http://www.w3.org/TR/2001/REC-SVG-20010904/DTD/svg10.dtd">
<svg version="1.0" xmlns="http://www.w3.org/2000/svg"
 width="674.000000pt" height="596.000000pt" viewBox="0 0 674.000000 596.000000"
 preserveAspectRatio="xMidYMid meet">

<g transform="translate(0.000000,596.000000) scale(0.100000,-0.100000)"
fill="#000000" stroke="none">
<path d="M0 2980 l0 -2980 3370 0 3370 0 0 2980 0 2980 -3370 0 -3370 0 0
-2980z m2775 2794 c50 -9 104 -18 120 -21 17 -3 35 -9 40 -14 6 -4 46 -11 90
-15 44 -4 82 -11 85 -15 4 -5 42 -13 85 -19 195 -26 219 -30 224 -38 3 -5 56
-11 118 -14 61 -2 118 -9 125 -16 7 -6 54 -16 103 -22 50 -7 99 -16 110 -20
11 -5 40 -11 65 -15 47 -6 111 -26 120 -36 3 -3 47 -9 99 -12 52 -4 100 -12
107 -18 7 -6 55 -14 106 -19 102 -9 202 -26 233 -40 40 -17 83 -22 275 -32
107 -5 197 -13 200 -17 3 -5 41 -11 85 -14 44 -4 112 -13 150 -22 39 -8 96
-15 127 -15 57 0 138 -24 138 -41 0 -5 15 -9 33 -9 18 0 42 -7 53 -15 10 -8
27 -15 36 -15 31 0 152 -52 170 -71 10 -12 30 -19 50 -19 33 0 171 -60 183
-80 3 -5 13 -10 22 -10 8 0 36 -18 61 -41 26 -23 57 -45 70 -50 12 -5 22 -15
22 -24 0 -8 4 -15 8 -15 13 0 52 -36 52 -48 0 -5 16 -19 35 -31 19 -11 35 -25
35 -31 0 -5 20 -29 44 -53 25 -23 48 -55 51 -69 4 -15 13 -29 20 -32 7 -2 16
-18 20 -34 3 -17 13 -33 21 -36 8 -3 14 -12 14 -21 0 -8 5 -15 10 -15 6 0 10
-12 10 -28 0 -15 6 -36 14 -47 7 -11 19 -45 26 -75 8 -30 17 -59 22 -64 22
-26 4 -559 -22 -621 -4 -11 -12 -47 -18 -80 -5 -33 -17 -80 -25 -105 -9 -25
-26 -79 -39 -120 -13 -41 -26 -77 -29 -80 -4 -3 -22 -40 -40 -83 -24 -60 -51
-100 -111 -168 -44 -49 -83 -89 -87 -89 -5 0 -14 -13 -21 -30 -7 -16 -20 -32
-30 -35 -10 -3 -28 -21 -39 -40 -10 -18 -32 -42 -47 -52 -16 -10 -48 -37 -72
-60 -24 -24 -50 -43 -57 -43 -20 0 -107 -51 -148 -87 -21 -19 -50 -39 -65 -46
-41 -18 -107 -60 -149 -96 -62 -53 -132 -101 -146 -101 -8 0 -24 -11 -37 -25
-13 -14 -29 -25 -35 -25 -7 0 -20 -9 -30 -20 -10 -11 -24 -20 -31 -20 -7 0
-17 -6 -21 -13 -8 -14 -97 -77 -107 -77 -4 0 -30 -17 -59 -37 -28 -20 -70 -49
-93 -65 -23 -15 -47 -35 -54 -43 -8 -9 -27 -23 -44 -32 -17 -9 -47 -28 -66
-43 -19 -15 -44 -29 -55 -31 -11 -2 -24 -14 -29 -25 -6 -12 -35 -35 -65 -50
-31 -16 -75 -45 -98 -65 -24 -20 -55 -39 -71 -42 -15 -3 -49 -22 -75 -42 -56
-42 -142 -95 -207 -126 -25 -12 -58 -28 -75 -37 -16 -8 -43 -22 -60 -30 -16
-8 -37 -20 -45 -27 -8 -7 -26 -16 -40 -20 -14 -4 -41 -19 -60 -34 -42 -31 -65
-46 -105 -66 -16 -8 -48 -26 -71 -38 -23 -13 -74 -34 -115 -47 -41 -12 -83
-26 -94 -31 -45 -19 -241 -31 -586 -37 -250 -5 -370 -11 -380 -18 -8 -7 -79
-14 -174 -18 -221 -9 -286 -16 -309 -32 -11 -8 -33 -14 -48 -14 -16 0 -36 -8
-47 -19 -10 -10 -25 -21 -32 -24 -8 -3 -5 -6 8 -6 12 -1 25 4 28 9 3 6 15 10
26 10 20 0 20 0 0 -26 -16 -21 -98 -97 -194 -182 -4 -4 -30 -29 -56 -57 -114
-118 -295 -281 -365 -329 -21 -14 -54 -46 -73 -70 -19 -24 -45 -47 -58 -50
-14 -4 -32 -17 -41 -30 -14 -23 -64 -62 -64 -52 0 3 11 17 25 32 14 15 25 31
25 35 0 18 -32 8 -56 -16 -28 -28 -74 -34 -74 -10 0 8 4 15 9 15 5 0 12 15 16
33 4 17 13 46 20 62 7 17 16 47 20 68 4 20 11 37 16 37 5 0 9 31 9 69 0 45 5
72 13 80 25 20 40 114 35 223 -4 90 -8 112 -31 153 -15 26 -27 53 -27 60 0 23
-26 66 -132 216 -37 53 -75 115 -84 138 -10 26 -27 47 -46 57 -16 8 -38 30
-48 47 -11 18 -52 52 -91 77 -39 25 -92 64 -118 87 -26 24 -62 49 -79 56 -35
14 -141 105 -206 176 -112 120 -186 207 -186 216 0 6 -16 34 -35 64 -19 29
-35 55 -35 57 0 2 -13 23 -30 46 -16 22 -30 48 -30 57 0 9 -9 44 -20 76 -21
60 -30 83 -56 140 -7 17 -20 59 -29 95 -9 36 -20 81 -25 100 -5 19 -10 88 -10
152 0 67 -4 119 -10 123 -22 14 -6 315 20 380 4 11 13 46 20 78 6 31 15 57 20
57 4 0 11 29 15 65 3 36 11 65 16 65 5 0 9 11 9 25 0 25 38 107 52 113 4 2 8
11 8 19 0 15 48 123 60 133 3 3 16 28 30 55 14 28 28 52 33 53 4 2 7 8 7 14 0
19 50 118 60 118 5 0 14 16 21 35 7 19 17 35 21 35 4 0 8 7 8 15 0 9 6 18 14
21 8 3 18 19 21 35 4 16 10 29 15 29 5 0 11 8 14 18 4 9 29 41 56 70 28 29 50
57 50 62 0 6 3 10 8 10 4 0 13 14 21 31 8 18 24 44 37 58 12 14 37 43 54 64
18 20 38 37 46 37 8 0 14 7 14 15 0 8 7 15 15 15 8 0 15 5 15 10 0 6 28 38 61
73 34 34 73 79 87 100 13 20 31 37 38 37 8 0 14 7 14 15 0 8 6 15 13 15 7 0
42 29 77 65 35 36 70 65 76 65 6 0 26 18 45 40 19 22 40 40 47 40 6 0 12 6 12
13 1 10 26 30 115 87 37 23 109 74 115 81 3 3 21 11 40 19 19 7 42 19 51 27 8
7 20 13 26 13 6 0 13 7 17 15 3 8 12 15 21 15 8 0 15 4 15 8 0 13 102 62 127
62 11 0 34 7 49 15 16 8 41 15 57 15 15 0 27 4 27 8 0 19 142 29 430 30 239 2
324 -1 395 -14z m-1125 -98 c0 -2 -8 -10 -17 -17 -16 -13 -17 -12 -4 4 13 16
21 21 21 13z m-140 -80 c0 -2 -8 -10 -17 -17 -16 -13 -17 -12 -4 4 13 16 21
21 21 13z m-260 -189 c0 -2 -12 -14 -27 -28 l-28 -24 24 28 c23 25 31 32 31
24z m4635 -177 c3 -6 -1 -7 -9 -4 -18 7 -21 14 -7 14 6 0 13 -4 16 -10z
m-4905 -64 c0 -2 -8 -10 -17 -17 -16 -13 -17 -12 -4 4 13 16 21 21 21 13z
m5141 -43 c13 -16 12 -17 -3 -4 -10 7 -18 15 -18 17 0 8 8 3 21 -13z m-5271
-106 c0 -2 -10 -12 -22 -23 l-23 -19 19 23 c18 21 26 27 26 19z m5451 -14 c13
-16 12 -17 -3 -4 -10 7 -18 15 -18 17 0 8 8 3 21 -13z m54 -53 c10 -11 16 -20
13 -20 -3 0 -13 9 -23 20 -10 11 -16 20 -13 20 3 0 13 -9 23 -20z m115 -125
c13 -14 21 -25 18 -25 -2 0 -15 11 -28 25 -13 14 -21 25 -18 25 2 0 15 -11 28
-25z m-5800 2 c0 -2 -10 -12 -22 -23 l-23 -19 19 23 c18 21 26 27 26 19z
m5851 -54 c13 -16 12 -17 -3 -4 -10 7 -18 15 -18 17 0 8 8 3 21 -13z m40 -70
c13 -16 12 -17 -3 -4 -10 7 -18 15 -18 17 0 8 8 3 21 -13z m-5981 -7 c0 -2 -8
-10 -17 -17 -16 -13 -17 -12 -4 4 13 16 21 21 21 13z m6021 -63 c13 -16 12
-17 -3 -4 -10 7 -18 15 -18 17 0 8 8 3 21 -13z m-6161 -127 c0 -2 -8 -10 -17
-17 -16 -13 -17 -12 -4 4 13 16 21 21 21 13z m-70 -110 c0 -2 -8 -10 -17 -17
-16 -13 -17 -12 -4 4 13 16 21 21 21 13z m6060 -1289 c0 -2 -10 -12 -22 -23
l-23 -19 19 23 c18 21 26 27 26 19z m-60 -70 c0 -2 -10 -12 -22 -23 l-23 -19
19 23 c18 21 26 27 26 19z m-110 -111 c0 -2 -8 -10 -17 -17 -16 -13 -17 -12
-4 4 13 16 21 21 21 13z m-100 -99 c0 -2 -10 -12 -22 -23 l-23 -19 19 23 c18
21 26 27 26 19z m-50 -50 c0 -2 -10 -12 -22 -23 l-23 -19 19 23 c18 21 26 27
26 19z m-310 -190 c0 -2 -10 -12 -22 -23 l-23 -19 19 23 c18 21 26 27 26 19z
m-160 -121 c0 -2 -8 -10 -17 -17 -16 -13 -17 -12 -4 4 13 16 21 21 21 13z
m-190 -120 c0 -2 -8 -10 -17 -17 -16 -13 -17 -12 -4 4 13 16 21 21 21 13z
m-120 -89 c0 -2 -10 -12 -22 -23 l-23 -19 19 23 c18 21 26 27 26 19z m-110
-70 c0 -2 -10 -12 -22 -23 l-23 -19 19 23 c18 21 26 27 26 19z m-4815 -57 c21
-22 37 -40 34 -40 -3 0 -23 18 -44 40 -21 22 -37 40 -34 40 3 0 23 -18 44 -40z
m4715 -13 c0 -2 -10 -12 -22 -23 l-23 -19 19 23 c18 21 26 27 26 19z m-110
-81 c0 -2 -8 -10 -17 -17 -16 -13 -17 -12 -4 4 13 16 21 21 21 13z m-40 -30
c0 -2 -8 -10 -17 -17 -16 -13 -17 -12 -4 4 13 16 21 21 21 13z m-4330 -113 c0
-8 -9 0 -50 45 l-45 47 48 -45 c26 -24 47 -45 47 -47z m4210 23 c0 -2 -8 -10
-17 -17 -16 -13 -17 -12 -4 4 13 16 21 21 21 13z m-4104 -88 l29 -33 -32 29
c-18 17 -33 31 -33 33 0 8 8 1 36 -29z m3864 -52 c0 -2 -8 -10 -17 -17 -16
-13 -17 -12 -4 4 13 16 21 21 21 13z m-3749 -33 c13 -16 12 -17 -3 -4 -10 7
-18 15 -18 17 0 8 8 3 21 -13z m94 -63 c10 -11 16 -20 13 -20 -3 0 -13 9 -23
20 -10 11 -16 20 -13 20 3 0 13 -9 23 -20z m96 -97 c13 -16 12 -17 -3 -4 -10
7 -18 15 -18 17 0 8 8 3 21 -13z m3159 -36 c0 -2 -10 -12 -22 -23 l-23 -19 19
23 c18 21 26 27 26 19z m-3079 -104 c13 -16 12 -17 -3 -4 -10 7 -18 15 -18 17
0 8 8 3 21 -13z m30 -40 c13 -16 12 -17 -3 -4 -10 7 -18 15 -18 17 0 8 8 3 21
-13z m2809 4 c0 -2 -10 -12 -22 -23 l-23 -19 19 23 c18 21 26 27 26 19z
m-2775 -57 c10 -11 16 -20 13 -20 -3 0 -13 9 -23 20 -10 11 -16 20 -13 20 3 0
13 -9 23 -20z m675 -533 c0 -2 -10 -12 -22 -23 l-23 -19 19 23 c18 21 26 27
26 19z m-50 -50 c0 -2 -12 -14 -27 -28 l-28 -24 24 28 c23 25 31 32 31 24z
m-60 -60 c0 -2 -17 -19 -37 -38 l-38 -34 34 38 c33 34 41 42 41 34z m-80 -70
c0 -2 -10 -12 -22 -23 l-23 -19 19 23 c18 21 26 27 26 19z m-170 -150 c0 -2
-10 -12 -22 -23 l-23 -19 19 23 c18 21 26 27 26 19z m-320 -101 c0 -2 -8 -10
-17 -17 -16 -13 -17 -12 -4 4 13 16 21 21 21 13z m85 -39 c-16 -12 -59 -50
-95 -84 -36 -35 -71 -63 -77 -63 -9 0 -13 16 -13 45 0 39 4 47 25 57 14 6 25
16 26 22 1 6 4 0 8 -13 8 -29 31 -40 31 -16 0 9 9 30 21 46 17 24 27 29 62 29
l42 -1 -30 -22z m-145 9 c0 -2 -8 -10 -17 -17 -16 -13 -17 -12 -4 4 13 16 21
21 21 13z m180 -29 c0 -2 -10 -12 -22 -23 l-23 -19 19 23 c18 21 26 27 26 19z"/>
<path d="M2280 5340 c-19 -5 -55 -13 -80 -18 -85 -19 -175 -45 -180 -52 -7
-10 -136 -90 -145 -90 -5 0 -23 -11 -41 -25 -18 -14 -35 -25 -38 -25 -18 0
-119 -71 -163 -114 -55 -53 -83 -78 -170 -146 -29 -22 -53 -47 -53 -54 0 -8
-16 -28 -35 -45 -19 -17 -35 -35 -35 -41 0 -6 -11 -16 -25 -22 -14 -6 -25 -15
-25 -19 0 -4 -20 -22 -43 -38 -24 -16 -64 -59 -87 -95 -24 -36 -47 -66 -52
-66 -4 0 -8 -5 -8 -11 0 -6 -17 -28 -38 -48 -49 -48 -72 -81 -72 -104 0 -10
-11 -28 -25 -40 -13 -12 -45 -62 -71 -112 -25 -49 -56 -104 -69 -120 -12 -17
-33 -55 -45 -85 -13 -30 -31 -64 -41 -75 -10 -11 -25 -58 -34 -105 -10 -47
-21 -89 -25 -95 -29 -38 -66 -425 -40 -425 6 0 10 -47 10 -120 0 -66 4 -128 9
-138 6 -9 13 -38 16 -64 3 -27 10 -48 16 -48 5 0 9 -12 9 -26 0 -18 4 -24 13
-21 10 4 13 -2 9 -19 -2 -13 3 -39 12 -58 9 -19 16 -40 16 -48 0 -8 7 -23 15
-33 67 -89 95 -132 95 -147 0 -9 8 -22 18 -27 10 -5 26 -25 36 -43 10 -19 28
-39 40 -44 11 -5 28 -23 36 -41 8 -18 26 -38 40 -45 29 -15 60 -40 106 -86 18
-17 41 -32 51 -32 10 0 37 -18 61 -40 23 -22 57 -47 75 -56 18 -9 36 -23 40
-30 4 -8 15 -14 23 -14 8 0 19 -11 24 -24 5 -13 22 -30 37 -38 15 -7 37 -31
48 -53 11 -22 26 -44 33 -48 6 -4 12 -14 12 -22 0 -8 11 -22 25 -31 14 -9 25
-21 25 -26 0 -5 8 -22 19 -36 31 -45 61 -102 61 -117 0 -17 20 -57 34 -67 6
-3 12 -47 14 -97 4 -79 2 -93 -17 -119 -16 -23 -21 -45 -21 -89 0 -32 -4 -63
-9 -68 -4 -6 -16 -35 -25 -65 -30 -97 -58 -160 -72 -160 -7 0 -29 -9 -48 -21
-33 -19 -36 -24 -36 -70 0 -49 0 -49 34 -49 24 0 43 9 70 35 21 19 39 35 41
35 3 0 18 13 34 29 17 16 40 33 53 36 26 9 48 29 48 44 0 6 11 13 25 17 24 6
105 87 105 105 0 5 7 9 15 9 9 0 28 11 43 25 15 14 32 25 38 25 7 0 19 11 28
24 8 14 24 27 34 30 11 4 24 18 30 31 6 14 18 25 25 25 8 0 19 11 25 25 6 13
22 27 36 31 13 3 37 23 52 45 15 21 30 39 35 39 4 0 21 14 37 30 17 17 33 30
36 30 10 0 96 88 96 99 0 6 14 11 31 11 22 0 30 4 26 14 -4 10 9 15 51 20 140
16 359 28 627 32 159 3 294 9 300 13 5 5 46 11 90 15 81 7 126 17 180 41 17 7
47 16 67 20 20 4 44 15 54 26 9 10 32 22 51 25 19 4 37 13 40 20 5 13 58 44
76 44 5 0 22 11 39 25 16 14 35 25 43 25 7 0 18 6 24 14 7 8 34 20 61 26 28 7
50 16 50 21 0 5 20 18 45 29 25 11 48 26 51 35 4 8 12 15 19 15 7 0 18 7 25
15 7 9 32 20 55 26 26 7 45 18 48 28 2 9 22 23 45 30 23 8 43 20 46 27 3 8 12
14 20 14 8 0 17 8 21 18 3 9 37 33 75 52 39 19 70 38 70 42 0 5 6 8 13 8 8 0
24 11 37 25 13 14 29 25 35 25 7 0 20 9 29 19 10 11 32 25 49 32 18 7 38 21
45 31 7 10 21 18 30 18 9 0 32 16 49 35 18 19 38 35 45 35 7 0 19 9 26 20 7
11 21 20 31 20 11 0 26 6 33 13 7 6 26 19 41 27 16 8 42 28 57 43 30 31 37 36
114 76 26 14 45 30 43 35 -3 6 9 11 24 12 16 1 37 9 47 18 10 9 24 16 30 16 7
0 12 5 12 10 0 6 8 10 18 10 10 0 36 17 57 38 22 20 52 45 68 55 15 9 27 26
27 36 0 13 10 20 30 24 21 5 30 12 30 26 0 10 16 33 35 50 19 17 35 34 35 39
0 5 16 22 35 39 19 17 35 35 35 38 0 4 8 15 18 24 19 17 52 81 52 100 0 6 5
11 10 11 6 0 10 15 10 33 0 17 7 41 15 51 8 11 15 37 15 57 0 21 4 40 9 43 5
3 12 33 16 66 4 33 10 60 14 60 15 0 31 173 31 331 0 160 -1 166 -30 234 -16
39 -30 80 -30 91 0 12 -9 33 -20 47 -11 14 -20 30 -20 36 0 40 -192 247 -257
278 -18 8 -33 21 -33 28 0 7 -20 23 -45 35 -25 12 -47 26 -51 31 -3 5 -12 9
-21 9 -8 0 -28 9 -43 20 -16 11 -43 23 -62 26 -18 4 -56 17 -85 30 -28 13 -59
24 -69 24 -9 0 -35 8 -58 19 -75 33 -140 53 -201 61 -33 4 -105 13 -160 19
-55 7 -109 16 -120 21 -11 5 -103 13 -204 19 -100 6 -188 15 -195 20 -7 6 -54
15 -106 21 -52 6 -130 18 -173 26 -42 8 -95 14 -117 14 -21 0 -55 9 -74 21
-27 16 -49 20 -90 17 -30 -1 -52 0 -50 3 2 4 -24 10 -58 13 -34 4 -74 14 -89
22 -18 9 -60 14 -118 14 -49 0 -92 4 -96 9 -3 6 -27 13 -53 16 -26 3 -55 10
-64 16 -10 5 -45 9 -78 9 -33 0 -60 4 -60 9 0 4 -26 11 -57 14 -32 4 -114 16
-183 27 -103 16 -169 20 -375 19 -137 -1 -266 -5 -285 -9z m-440 -214 c0 -2
-8 -10 -17 -17 -16 -13 -17 -12 -4 4 13 16 21 21 21 13z m-100 -60 c0 -2 -8
-10 -17 -17 -16 -13 -17 -12 -4 4 13 16 21 21 21 13z m-90 -79 c0 -2 -10 -12
-22 -23 l-23 -19 19 23 c18 21 26 27 26 19z m1500 -52 c13 -14 21 -25 18 -25
-2 0 -15 11 -28 25 -13 14 -21 25 -18 25 2 0 15 -11 28 -25z m-1640 -69 c0 -2
-8 -10 -17 -17 -16 -13 -17 -12 -4 4 13 16 21 21 21 13z m1691 -13 c13 -16 12
-17 -3 -4 -17 13 -22 21 -14 21 2 0 10 -8 17 -17z m1019 -46 c0 -2 -12 -14
-27 -28 l-28 -24 24 28 c23 25 31 32 31 24z m1401 -34 c13 -16 12 -17 -3 -4
-10 7 -18 15 -18 17 0 8 8 3 21 -13z m-1090 -20 c13 -16 12 -17 -3 -4 -17 13
-22 21 -14 21 2 0 10 -8 17 -17z m1159 -18 c13 -14 21 -25 18 -25 -2 0 -15 11
-28 25 -13 14 -21 25 -18 25 2 0 15 -11 28 -25z m-4300 1 c0 -2 -8 -10 -17
-17 -16 -13 -17 -12 -4 4 13 16 21 21 21 13z m2300 0 c0 -2 -8 -10 -17 -17
-16 -13 -17 -12 -4 4 13 16 21 21 21 13z m901 -33 c13 -16 12 -17 -3 -4 -17
13 -22 21 -14 21 2 0 10 -8 17 -17z m-941 -6 c0 -2 -15 -16 -32 -33 l-33 -29
29 33 c28 30 36 37 36 29z m-2410 -90 c0 -2 -10 -12 -22 -23 l-23 -19 19 23
c18 21 26 27 26 19z m2951 -44 c13 -16 12 -17 -3 -4 -17 13 -22 21 -14 21 2 0
10 -8 17 -17z m60 0 c13 -16 12 -17 -3 -4 -10 7 -18 15 -18 17 0 8 8 3 21 -13z
m-3061 -17 c0 -2 -8 -10 -17 -17 -16 -13 -17 -12 -4 4 13 16 21 21 21 13z
m3080 -61 c19 -19 32 -35 29 -35 -3 0 -20 16 -39 35 -19 19 -32 35 -29 35 3 0
20 -16 39 -35z m35 15 c10 -11 16 -20 13 -20 -3 0 -13 9 -23 20 -10 11 -16 20
-13 20 3 0 13 -9 23 -20z m225 -33 c0 -2 -12 -14 -27 -28 l-28 -24 24 28 c23
25 31 32 31 24z m70 0 c0 -2 -12 -14 -27 -28 l-28 -24 24 28 c23 25 31 32 31
24z m-450 -71 c0 -2 -8 -10 -17 -17 -16 -13 -17 -12 -4 4 13 16 21 21 21 13z
m-529 -93 c13 -16 12 -17 -3 -4 -17 13 -22 21 -14 21 2 0 10 -8 17 -17z
m-1371 -67 c0 -2 -8 -10 -17 -17 -16 -13 -17 -12 -4 4 13 16 21 21 21 13z
m911 -33 c13 -16 12 -17 -3 -4 -10 7 -18 15 -18 17 0 8 8 3 21 -13z m-951 -6
c0 -2 -15 -16 -32 -33 l-33 -29 29 33 c28 30 36 37 36 29z m-60 -71 c0 -2 -8
-10 -17 -17 -16 -13 -17 -12 -4 4 13 16 21 21 21 13z m1571 -23 c13 -16 12
-17 -3 -4 -17 13 -22 21 -14 21 2 0 10 -8 17 -17z m0 -60 c13 -16 12 -17 -3
-4 -17 13 -22 21 -14 21 2 0 10 -8 17 -17z m-1631 3 c0 -2 -8 -10 -17 -17 -16
-13 -17 -12 -4 4 13 16 21 21 21 13z m-725 -46 c10 -11 16 -20 13 -20 -3 0
-13 9 -23 20 -10 11 -16 20 -13 20 3 0 13 -9 23 -20z m735 7 c0 -2 -15 -16
-32 -33 l-33 -29 29 33 c28 30 36 37 36 29z m-70 -20 c0 -1 -24 -25 -52 -52
l-53 -50 50 53 c46 48 55 57 55 49z m1765 -87 c10 -11 16 -20 13 -20 -3 0 -13
9 -23 20 -10 11 -16 20 -13 20 3 0 13 -9 23 -20z m-1795 6 c0 -2 -8 -10 -17
-17 -16 -13 -17 -12 -4 4 13 16 21 21 21 13z m-525 -86 c10 -11 16 -20 13 -20
-3 0 -13 9 -23 20 -10 11 -16 20 -13 20 3 0 13 -9 23 -20z m445 6 c0 -2 -8
-10 -17 -17 -16 -13 -17 -12 -4 4 13 16 21 21 21 13z m1941 -33 c13 -16 12
-17 -3 -4 -17 13 -22 21 -14 21 2 0 10 -8 17 -17z m-1981 4 c0 -2 -15 -16 -32
-33 l-33 -29 29 33 c28 30 36 37 36 29z m2075 -57 c27 -27 47 -50 44 -50 -3 0
-27 23 -54 50 -27 28 -47 50 -44 50 3 0 27 -22 54 -50z m-2165 27 c0 -2 -10
-12 -22 -23 l-23 -19 19 23 c18 21 26 27 26 19z m-245 -57 c21 -22 37 -40 34
-40 -3 0 -23 18 -44 40 -21 22 -37 40 -34 40 3 0 23 -18 44 -40z m445 -4 c0
-2 -8 -10 -17 -17 -16 -13 -17 -12 -4 4 13 16 21 21 21 13z m-360 -81 c13 -14
21 -25 18 -25 -2 0 -15 11 -28 25 -13 14 -21 25 -18 25 2 0 15 -11 28 -25z
m350 1 c0 -2 -8 -10 -17 -17 -16 -13 -17 -12 -4 4 13 16 21 21 21 13z m-60
-19 c0 -1 -28 -29 -62 -62 l-63 -60 60 63 c55 58 65 67 65 59z m-10 -61 c0 -2
-8 -10 -17 -17 -16 -13 -17 -12 -4 4 13 16 21 21 21 13z m2191 -53 c13 -16 12
-17 -3 -4 -17 13 -22 21 -14 21 2 0 10 -8 17 -17z m-2261 -16 c0 -2 -15 -16
-32 -33 l-33 -29 29 33 c28 30 36 37 36 29z m-70 -20 c0 -2 -10 -12 -22 -23
l-23 -19 19 23 c18 21 26 27 26 19z m2461 -64 c13 -16 12 -17 -3 -4 -17 13
-22 21 -14 21 2 0 10 -8 17 -17z m99 3 c0 -2 -8 -10 -17 -17 -16 -13 -17 -12
-4 4 13 16 21 21 21 13z m-2580 -40 c0 -2 -8 -10 -17 -17 -16 -13 -17 -12 -4
4 13 16 21 21 21 13z m2515 -56 c10 -11 16 -20 13 -20 -3 0 -13 9 -23 20 -10
11 -16 20 -13 20 3 0 13 -9 23 -20z m1625 -34 c0 -2 -8 -10 -17 -17 -16 -13
-17 -12 -4 4 13 16 21 21 21 13z m-1719 -183 c13 -16 12 -17 -3 -4 -17 13 -22
21 -14 21 2 0 10 -8 17 -17z m1529 -36 c0 -2 -10 -12 -22 -23 l-23 -19 19 23
c18 21 26 27 26 19z m-1504 -59 l29 -33 -32 29 c-31 28 -38 36 -30 36 2 0 16
-15 33 -32z m1434 -2 c0 -2 -8 -10 -17 -17 -16 -13 -17 -12 -4 4 13 16 21 21
21 13z m-1334 -98 l29 -33 -32 29 c-31 28 -38 36 -30 36 2 0 16 -15 33 -32z
m-2276 -22 c0 -2 -8 -10 -17 -17 -16 -13 -17 -12 -4 4 13 16 21 21 21 13z m10
-39 c0 -2 -15 -16 -32 -33 l-33 -29 29 33 c28 30 36 37 36 29z m2366 -39 l29
-33 -32 29 c-31 28 -38 36 -30 36 2 0 16 -15 33 -32z m-2436 19 c0 -2 -10 -12
-22 -23 l-23 -19 19 23 c18 21 26 27 26 19z m3340 -20 c0 -2 -10 -12 -22 -23
l-23 -19 19 23 c18 21 26 27 26 19z m-789 -74 c13 -16 12 -17 -3 -4 -17 13
-22 21 -14 21 2 0 10 -8 17 -17z m-1266 -253 c10 -11 16 -20 13 -20 -3 0 -13
9 -23 20 -10 11 -16 20 -13 20 3 0 13 -9 23 -20z m-2215 -65 c19 -19 32 -35
29 -35 -3 0 -20 16 -39 35 -19 19 -32 35 -29 35 3 0 20 -16 39 -35z m2837 -47
c-2 -13 -4 -5 -4 17 -1 22 1 32 4 23 2 -10 2 -28 0 -40z m213 29 c0 -2 -12
-14 -27 -28 l-28 -24 24 28 c23 25 31 32 31 24z m-1145 -47 c10 -11 16 -20 13
-20 -3 0 -13 9 -23 20 -10 11 -16 20 -13 20 3 0 13 -9 23 -20z m15 -113 c0 -2
-12 -14 -27 -28 l-28 -24 24 28 c23 25 31 32 31 24z m-160 -91 c0 -2 -8 -10
-17 -17 -16 -13 -17 -12 -4 4 13 16 21 21 21 13z m1110 -220 c0 -2 -8 -10 -17
-17 -16 -13 -17 -12 -4 4 13 16 21 21 21 13z m-1500 -240 c0 -11 -19 -15 -25
-6 -3 5 1 10 9 10 9 0 16 -2 16 -4z m-100 -101 c-24 -25 -46 -45 -49 -45 -3 0
15 20 39 45 24 25 46 45 49 45 3 0 -15 -20 -39 -45z m-60 -49 c0 -2 -8 -10
-17 -17 -16 -13 -17 -12 -4 4 13 16 21 21 21 13z m-120 -110 c0 -2 -8 -10 -17
-17 -16 -13 -17 -12 -4 4 13 16 21 21 21 13z m-50 -49 c0 -2 -10 -12 -22 -23
l-23 -19 19 23 c18 21 26 27 26 19z m-66 -63 c-31 -24 -54 -35 -54 -27 0 5 14
17 30 26 17 10 30 24 31 30 0 8 2 8 6 -1 3 -7 -3 -20 -13 -28z m-64 -49 c0 -2
-6 -8 -13 -14 -10 -8 -14 -7 -14 2 0 8 6 14 14 14 7 0 13 -1 13 -2z m-260
-215 c0 -5 -7 -10 -15 -10 -8 0 -15 -4 -15 -9 0 -5 -8 -12 -18 -15 -11 -4 -25
-18 -32 -31 -7 -14 -19 -25 -25 -25 -7 0 -18 -7 -25 -15 -20 -24 -30 -17 -30
21 0 27 5 37 20 41 11 3 20 10 21 17 0 6 5 0 10 -13 l10 -25 14 27 c7 15 17
31 20 37 8 13 65 13 65 0z"/>
<path d="M1765 820 c-3 -5 -1 -10 4 -10 6 0 11 5 11 10 0 6 -2 10 -4 10 -3 0
-8 -4 -11 -10z"/>
<path d="M1690 748 c0 -6 -21 -31 -46 -55 -25 -25 -43 -47 -40 -50 5 -5 116
101 116 111 0 3 -7 6 -15 6 -8 0 -15 -5 -15 -12z"/>
</g>
</svg>
